<?xml version="1.0" ?><svg viewBox="0 0 128 128" xmlns="http://www.w3.org/2000/svg" xmlns:xlink="http://www.w3.org/1999/xlink"><style>:root>svg{display:none}:root>svg:target{display:block}</style><svg data-name="Layer 1" id="mail-message-sent-user-10-svgrepo-com" viewBox="0 0 128 128" xmlns="http://www.w3.org/2000/svg"><defs><style>.acls-1{fill:#231f20}</style></defs><path class="acls-1" d="M87.59 23.4H40.41a17 17 0 00-17 17v47.2a17 17 0 0017 17h47.18a17 17 0 0017-17V40.4a17 17 0 00-17-17zm0 77.2H66.14v-3.2a2 2 0 00-4 0v3.2H40.41a13 13 0 01-13-13V66H31a2 2 0 100-4h-3.59V40.4a13 13 0 0113-13h21.73v3a2 2 0 004 0v-3h21.45a13 13 0 0113 13V62H97a2 2 0 000 4h3.61v21.6a13 13 0 01-13.02 13z"/><path class="acls-1" d="M77.15 73.08l-11-8.92L66 37.82a2 2 0 00-2-2 2 2 0 00-2 2l.14 27.29a2 2 0 00.74 1.54l11.75 9.52a2 2 0 001.26.45 2 2 0 001.56-.74 2 2 0 00-.3-2.8z"/></svg><svg data-name="Layer 1" id="mail-message-sent-user-14-svgrepo-com" viewBox="0 0 128 128" xmlns="http://www.w3.org/2000/svg"><defs><style>.bcls-1{fill:#231f20}</style></defs><path class="bcls-1" d="M35.19 101.22H19a5 5 0 01-5-5V31.79a5 5 0 015-5h16.19a5 5 0 015 5v64.42a5 5 0 01-5 5.01zM19 30.78a1 1 0 00-1 1v64.43a1 1 0 001 1h16.19a1 1 0 001-1V31.79a1 1 0 00-1-1zM72.31 101.22H56.12a5 5 0 01-5-5V50.41a5 5 0 015-5h16.19a5 5 0 015 5v45.8a5 5 0 01-5 5.01zM56.12 49.41a1 1 0 00-1 1v45.8a1 1 0 001 1h16.19a1 1 0 001-1v-45.8a1 1 0 00-1-1zM109 101.22H92.81a5 5 0 01-5-5V76.65a5 5 0 015-5H109a5 5 0 015 5v19.56a5 5 0 01-5 5.01zM92.81 75.65a1 1 0 00-1 1v19.56a1 1 0 001 1H109a1 1 0 001-1V76.65a1 1 0 00-1-1z"/></svg><svg data-name="Layer 1" id="mail-message-sent-user-15-svgrepo-com" viewBox="0 0 128 128" xmlns="http://www.w3.org/2000/svg"><defs><style>.ccls-1{fill:#231f20}</style></defs><path class="ccls-1" d="M108.15 47.28H92v-8.61a5.86 5.86 0 00-5.85-5.86H19.86A5.87 5.87 0 0014 38.67v38.52a3.53 3.53 0 002.2 3.28 3.76 3.76 0 001.35.26 3.54 3.54 0 002.52-1.06l5.11-5.2H36v8.61a5.86 5.86 0 005.85 5.86h61l5.12 5.2a3.54 3.54 0 003.87.78 3.52 3.52 0 002.16-3.27V53.13a5.85 5.85 0 00-5.85-5.85zM24.34 70.47a2 2 0 00-1.43.6l-4.91 5v-37.4a1.86 1.86 0 011.86-1.86h66.29A1.85 1.85 0 0188 38.67v30a1.85 1.85 0 01-1.85 1.85H24.34zM110 90.53l-4.92-5a1.94 1.94 0 00-1.42-.6h-61.8A1.86 1.86 0 0140 83.08v-8.61h46.15A5.85 5.85 0 0092 68.62V51.28h16.15a1.85 1.85 0 011.85 1.85z"/><path class="ccls-1" d="M82 52.06a2 2 0 00-2-2H28.22a2 2 0 000 4H80a2 2 0 002-2z"/></svg><svg data-name="Layer 1" id="mail-message-sent-user-5-svgrepo-com" viewBox="0 0 128 128" xmlns="http://www.w3.org/2000/svg"><defs><style>.dcls-1{fill:#231f20}</style></defs><path class="dcls-1" d="M87.6 23.41H40.35a17 17 0 00-17 17v47.18a17 17 0 0017 17H87.6a17 17 0 0017-17V40.41a17 17 0 00-17-17zM27.4 87.59V40.41a13 13 0 0112.45-13l27.54 18.08H53.91a8.43 8.43 0 00-8.42 8.42v20.18a8.42 8.42 0 007.77 8.38l27.64 18.12H40.4a13 13 0 01-13-13zm46.69-38.1a4.42 4.42 0 014.42 4.42v20.18a4.42 4.42 0 01-4.42 4.42H53.91a4.42 4.42 0 01-4.42-4.42V53.91a4.42 4.42 0 014.42-4.42zm26.51 38.1a13 13 0 01-12.45 13L60.61 82.51h13.48a8.43 8.43 0 008.42-8.42V53.91a8.42 8.42 0 00-7.77-8.38L47.1 27.41h40.5a13 13 0 0113 13z"/></svg><svg data-name="Layer 1" id="mail-message-sent-user-7-svgrepo-com" viewBox="0 0 128 128" xmlns="http://www.w3.org/2000/svg"><defs><style>.ecls-1{fill:#231f20}</style></defs><path class="ecls-1" d="M64 60.43a45 45 0 00-45 42.85 4 4 0 001.11 3A4 4 0 0023 107.5h82a4 4 0 002.89-1.24 4 4 0 001.11-3 45 45 0 00-45-42.83zm3.94 4.19l-3.23 3.23a1 1 0 01-1.42 0l-3.23-3.23c1.3-.12 2.61-.19 3.94-.19s2.64.07 3.94.19zM23 103.48a41 41 0 0132.2-38.09l5.28 5.29a5 5 0 007.08 0l5.28-5.29A41 41 0 01105 103.5zM64.86 59.5A19.5 19.5 0 1045.36 40a19.53 19.53 0 0019.5 19.5zm0-35A15.5 15.5 0 1149.36 40a15.51 15.51 0 0115.5-15.5z"/></svg></svg>