<?xml version="1.0" encoding="utf-8"?><svg viewBox="0 0 808 512" xmlns="http://www.w3.org/2000/svg" xmlns:xlink="http://www.w3.org/1999/xlink"><style>:root>svg{display:none}:root>svg:target{display:block}</style><svg fill="none" viewBox="0 0 800 450" id="Group_1" xmlns="http://www.w3.org/2000/svg"><path fill="#B31B04" d="M0 0h800v450H0z"/><rect x="20" y="18" width="760" height="90" rx="10" fill="#FF6014"/><rect x="20" y="342" width="760" height="90" rx="10" fill="#FF6014"/></svg><svg fill="none" viewBox="0 0 808 458" id="Group_2" xmlns="http://www.w3.org/2000/svg"><g filter="url(#bfilter0_d_6_25)"><path fill="#B31B04" d="M4 0h800v450H4z"/><rect x="24" y="18" width="760" height="90" rx="10" fill="#FF6014"/><rect x="24" y="342" width="760" height="90" rx="10" fill="#FF6014"/><rect x="24" y="126" width="320" height="198" rx="10" fill="#FF6014"/></g><defs><filter id="bfilter0_d_6_25" x="0" y="0" width="808" height="458" filterUnits="userSpaceOnUse" color-interpolation-filters="sRGB"><feFlood flood-opacity="0" result="BackgroundImageFix"/><feColorMatrix in="SourceAlpha" values="0 0 0 0 0 0 0 0 0 0 0 0 0 0 0 0 0 0 127 0" result="hardAlpha"/><feOffset dy="4"/><feGaussianBlur stdDeviation="2"/><feComposite in2="hardAlpha" operator="out"/><feColorMatrix values="0 0 0 0 0 0 0 0 0 0 0 0 0 0 0 0 0 0 0.25 0"/><feBlend in2="BackgroundImageFix" result="effect1_dropShadow_6_25"/><feBlend in="SourceGraphic" in2="effect1_dropShadow_6_25" result="shape"/></filter></defs></svg><svg fill="none" viewBox="0 0 800 450" id="Group_3" xmlns="http://www.w3.org/2000/svg"><path fill="#B31B04" d="M0 0h800v450H0z"/><rect x="20" y="18" width="760" height="90" rx="10" fill="#FF6014"/><rect x="20" y="342" width="760" height="90" rx="10" fill="#FF6014"/><rect x="20" y="126" width="320" height="198" rx="10" fill="#FF6014"/><rect x="360" y="126" width="420" height="81" rx="10" fill="#FF6014"/><rect x="360" y="234" width="420" height="81" rx="10" fill="#FF6014"/></svg><svg fill="none" viewBox="0 0 800 450" id="Group_4" xmlns="http://www.w3.org/2000/svg"><path fill="#B31B04" d="M0 0h800v450H0z"/><rect x="20" y="18" width="760" height="90" rx="10" fill="#FF6014"/><rect x="20" y="342" width="760" height="90" rx="10" fill="#FF6014"/><rect x="20" y="241.2" width="760" height="72" rx="10" fill="#FF6014"/><rect x="360" y="138.6" width="420" height="72" rx="10" fill="#FF6014"/><rect x="20" y="138.6" width="322" height="72" rx="10" fill="#FF6014"/></svg><svg aria-hidden="true" data-prefix="fab" data-icon="facebook-f" class="esvg-inline--fa efa-facebook-f efa-w-10" viewBox="0 0 320 512" id="facebook-f-brands" xmlns="http://www.w3.org/2000/svg"><path fill="currentColor" d="M279.14 288l14.22-92.66h-88.91v-60.13c0-25.35 12.42-50.06 52.24-50.06h40.42V6.26S260.43 0 225.36 0c-73.22 0-121.08 44.38-121.08 124.72v70.62H22.89V288h81.39v224h100.17V288z"/></svg><svg aria-hidden="true" data-prefix="fab" data-icon="instagram" class="fsvg-inline--fa ffa-instagram ffa-w-14" viewBox="0 0 448 512" id="instagram-brands" xmlns="http://www.w3.org/2000/svg"><path fill="currentColor" d="M224.1 141c-63.6 0-114.9 51.3-114.9 114.9s51.3 114.9 114.9 114.9S339 319.5 339 255.9 287.7 141 224.1 141zm0 189.6c-41.1 0-74.7-33.5-74.7-74.7s33.5-74.7 74.7-74.7 74.7 33.5 74.7 74.7-33.6 74.7-74.7 74.7zm146.4-194.3c0 14.9-12 26.8-26.8 26.8-14.9 0-26.8-12-26.8-26.8s12-26.8 26.8-26.8 26.8 12 26.8 26.8zm76.1 27.2c-1.7-35.9-9.9-67.7-36.2-93.9-26.2-26.2-58-34.4-93.9-36.2-37-2.1-147.9-2.1-184.9 0-35.8 1.7-67.6 9.9-93.9 36.1s-34.4 58-36.2 93.9c-2.1 37-2.1 147.9 0 184.9 1.7 35.9 9.9 67.7 36.2 93.9s58 34.4 93.9 36.2c37 2.1 147.9 2.1 184.9 0 35.9-1.7 67.7-9.9 93.9-36.2 26.2-26.2 34.4-58 36.2-93.9 2.1-37 2.1-147.8 0-184.8zM398.8 388c-7.8 19.6-22.9 34.7-42.6 42.6-29.5 11.7-99.5 9-132.1 9s-102.7 2.6-132.1-9c-19.6-7.8-34.7-22.9-42.6-42.6-11.7-29.5-9-99.5-9-132.1s-2.6-102.7 9-132.1c7.8-19.6 22.9-34.7 42.6-42.6 29.5-11.7 99.5-9 132.1-9s102.7-2.6 132.1 9c19.6 7.8 34.7 22.9 42.6 42.6 11.7 29.5 9 99.5 9 132.1s2.7 102.7-9 132.1z"/></svg><svg data-name="Layer 1" id="mail-message-sent-user-10-svgrepo-com" viewBox="0 0 128 128" xmlns="http://www.w3.org/2000/svg"><defs><style>.gcls-1{fill:#231f20}</style></defs><path class="gcls-1" d="M87.59 23.4H40.41a17 17 0 00-17 17v47.2a17 17 0 0017 17h47.18a17 17 0 0017-17V40.4a17 17 0 00-17-17zm0 77.2H66.14v-3.2a2 2 0 00-4 0v3.2H40.41a13 13 0 01-13-13V66H31a2 2 0 100-4h-3.59V40.4a13 13 0 0113-13h21.73v3a2 2 0 004 0v-3h21.45a13 13 0 0113 13V62H97a2 2 0 000 4h3.61v21.6a13 13 0 01-13.02 13z"/><path class="gcls-1" d="M77.15 73.08l-11-8.92L66 37.82a2 2 0 00-2-2 2 2 0 00-2 2l.14 27.29a2 2 0 00.74 1.54l11.75 9.52a2 2 0 001.26.45 2 2 0 001.56-.74 2 2 0 00-.3-2.8z"/></svg><svg data-name="Layer 1" id="mail-message-sent-user-14-svgrepo-com" viewBox="0 0 128 128" xmlns="http://www.w3.org/2000/svg"><defs><style>.hcls-1{fill:#231f20}</style></defs><path class="hcls-1" d="M35.19 101.22H19a5 5 0 01-5-5V31.79a5 5 0 015-5h16.19a5 5 0 015 5v64.42a5 5 0 01-5 5.01zM19 30.78a1 1 0 00-1 1v64.43a1 1 0 001 1h16.19a1 1 0 001-1V31.79a1 1 0 00-1-1zM72.31 101.22H56.12a5 5 0 01-5-5V50.41a5 5 0 015-5h16.19a5 5 0 015 5v45.8a5 5 0 01-5 5.01zM56.12 49.41a1 1 0 00-1 1v45.8a1 1 0 001 1h16.19a1 1 0 001-1v-45.8a1 1 0 00-1-1zM109 101.22H92.81a5 5 0 01-5-5V76.65a5 5 0 015-5H109a5 5 0 015 5v19.56a5 5 0 01-5 5.01zM92.81 75.65a1 1 0 00-1 1v19.56a1 1 0 001 1H109a1 1 0 001-1V76.65a1 1 0 00-1-1z"/></svg><svg data-name="Layer 1" id="mail-message-sent-user-15-svgrepo-com" viewBox="0 0 128 128" xmlns="http://www.w3.org/2000/svg"><defs><style>.icls-1{fill:#231f20}</style></defs><path class="icls-1" d="M108.15 47.28H92v-8.61a5.86 5.86 0 00-5.85-5.86H19.86A5.87 5.87 0 0014 38.67v38.52a3.53 3.53 0 002.2 3.28 3.76 3.76 0 001.35.26 3.54 3.54 0 002.52-1.06l5.11-5.2H36v8.61a5.86 5.86 0 005.85 5.86h61l5.12 5.2a3.54 3.54 0 003.87.78 3.52 3.52 0 002.16-3.27V53.13a5.85 5.85 0 00-5.85-5.85zM24.34 70.47a2 2 0 00-1.43.6l-4.91 5v-37.4a1.86 1.86 0 011.86-1.86h66.29A1.85 1.85 0 0188 38.67v30a1.85 1.85 0 01-1.85 1.85H24.34zM110 90.53l-4.92-5a1.94 1.94 0 00-1.42-.6h-61.8A1.86 1.86 0 0140 83.08v-8.61h46.15A5.85 5.85 0 0092 68.62V51.28h16.15a1.85 1.85 0 011.85 1.85z"/><path class="icls-1" d="M82 52.06a2 2 0 00-2-2H28.22a2 2 0 000 4H80a2 2 0 002-2z"/></svg><svg data-name="Layer 1" id="mail-message-sent-user-5-svgrepo-com" viewBox="0 0 128 128" xmlns="http://www.w3.org/2000/svg"><defs><style>.jcls-1{fill:#231f20}</style></defs><path class="jcls-1" d="M87.6 23.41H40.35a17 17 0 00-17 17v47.18a17 17 0 0017 17H87.6a17 17 0 0017-17V40.41a17 17 0 00-17-17zM27.4 87.59V40.41a13 13 0 0112.45-13l27.54 18.08H53.91a8.43 8.43 0 00-8.42 8.42v20.18a8.42 8.42 0 007.77 8.38l27.64 18.12H40.4a13 13 0 01-13-13zm46.69-38.1a4.42 4.42 0 014.42 4.42v20.18a4.42 4.42 0 01-4.42 4.42H53.91a4.42 4.42 0 01-4.42-4.42V53.91a4.42 4.42 0 014.42-4.42zm26.51 38.1a13 13 0 01-12.45 13L60.61 82.51h13.48a8.43 8.43 0 008.42-8.42V53.91a8.42 8.42 0 00-7.77-8.38L47.1 27.41h40.5a13 13 0 0113 13z"/></svg><svg data-name="Layer 1" id="mail-message-sent-user-7-svgrepo-com" viewBox="0 0 128 128" xmlns="http://www.w3.org/2000/svg"><defs><style>.kcls-1{fill:#231f20}</style></defs><path class="kcls-1" d="M64 60.43a45 45 0 00-45 42.85 4 4 0 001.11 3A4 4 0 0023 107.5h82a4 4 0 002.89-1.24 4 4 0 001.11-3 45 45 0 00-45-42.83zm3.94 4.19l-3.23 3.23a1 1 0 01-1.42 0l-3.23-3.23c1.3-.12 2.61-.19 3.94-.19s2.64.07 3.94.19zM23 103.48a41 41 0 0132.2-38.09l5.28 5.29a5 5 0 007.08 0l5.28-5.29A41 41 0 01105 103.5zM64.86 59.5A19.5 19.5 0 1045.36 40a19.53 19.53 0 0019.5 19.5zm0-35A15.5 15.5 0 1149.36 40a15.51 15.51 0 0115.5-15.5z"/></svg><svg aria-hidden="true" data-prefix="fab" data-icon="vk" class="lsvg-inline--fa lfa-vk lfa-w-18" viewBox="0 0 576 512" id="vk-brands" xmlns="http://www.w3.org/2000/svg"><path fill="currentColor" d="M545 117.7c3.7-12.5 0-21.7-17.8-21.7h-58.9c-15 0-21.9 7.9-25.6 16.7 0 0-30 73.1-72.4 120.5-13.7 13.7-20 18.1-27.5 18.1-3.7 0-9.4-4.4-9.4-16.9V117.7c0-15-4.2-21.7-16.6-21.7h-92.6c-9.4 0-15 7-15 13.5 0 14.2 21.2 17.5 23.4 57.5v86.8c0 19-3.4 22.5-10.9 22.5-20 0-68.6-73.4-97.4-157.4-5.8-16.3-11.5-22.9-26.6-22.9H38.8c-16.8 0-20.2 7.9-20.2 16.7 0 15.6 20 93.1 93.1 195.5C160.4 378.1 229 416 291.4 416c37.5 0 42.1-8.4 42.1-22.9 0-66.8-3.4-73.1 15.4-73.1 8.7 0 23.7 4.4 58.7 38.1 40 40 46.6 57.9 69 57.9h58.9c16.8 0 25.3-8.4 20.4-25-11.2-34.9-86.9-106.7-90.3-111.5-8.7-11.2-6.2-16.2 0-26.2.1-.1 72-101.3 79.4-135.6z"/></svg><svg aria-hidden="true" data-prefix="fab" data-icon="youtube" class="msvg-inline--fa mfa-youtube mfa-w-18" viewBox="0 0 576 512" id="youtube-brands" xmlns="http://www.w3.org/2000/svg"><path fill="currentColor" d="M549.655 124.083c-6.281-23.65-24.787-42.276-48.284-48.597C458.781 64 288 64 288 64S117.22 64 74.629 75.486c-23.497 6.322-42.003 24.947-48.284 48.597-11.412 42.867-11.412 132.305-11.412 132.305s0 89.438 11.412 132.305c6.281 23.65 24.787 41.5 48.284 47.821C117.22 448 288 448 288 448s170.78 0 213.371-11.486c23.497-6.321 42.003-24.171 48.284-47.821 11.412-42.867 11.412-132.305 11.412-132.305s0-89.438-11.412-132.305zm-317.51 213.508V175.185l142.739 81.205-142.739 81.201z"/></svg></svg>