<?xml version="1.0" ?><svg width="128px" height="128px" viewBox="0 0 128 128" data-name="Layer 1" id="Layer_1" xmlns="http://www.w3.org/2000/svg"><defs><style>.cls-1{fill:#231f20;}</style></defs><title/><path class="cls-1" d="M35.19,101.22H19a5,5,0,0,1-5-5V31.79a5,5,0,0,1,5-5H35.19a5,5,0,0,1,5,5V96.21A5,5,0,0,1,35.19,101.22ZM19,30.78a1,1,0,0,0-1,1V96.21a1,1,0,0,0,1,1H35.19a1,1,0,0,0,1-1V31.79a1,1,0,0,0-1-1Z"/><path class="cls-1" d="M72.31,101.22H56.12a5,5,0,0,1-5-5V50.41a5,5,0,0,1,5-5H72.31a5,5,0,0,1,5,5v45.8A5,5,0,0,1,72.31,101.22ZM56.12,49.41a1,1,0,0,0-1,1v45.8a1,1,0,0,0,1,1H72.31a1,1,0,0,0,1-1V50.41a1,1,0,0,0-1-1Z"/><path class="cls-1" d="M109,101.22H92.81a5,5,0,0,1-5-5V76.65a5,5,0,0,1,5-5H109a5,5,0,0,1,5,5V96.21A5,5,0,0,1,109,101.22ZM92.81,75.65a1,1,0,0,0-1,1V96.21a1,1,0,0,0,1,1H109a1,1,0,0,0,1-1V76.65a1,1,0,0,0-1-1Z"/></svg>