<?xml version="1.0" ?><svg width="128px" height="128px" viewBox="0 0 128 128" data-name="Layer 1" id="Layer_1" xmlns="http://www.w3.org/2000/svg"><defs><style>.cls-1{fill:#231f20;}</style></defs><title/><path class="cls-1" d="M108.15,47.28H92V38.67a5.86,5.86,0,0,0-5.85-5.86H19.86A5.87,5.87,0,0,0,14,38.67V77.19a3.53,3.53,0,0,0,2.2,3.28,3.76,3.76,0,0,0,1.35.26,3.54,3.54,0,0,0,2.52-1.06l5.11-5.2H36v8.61a5.86,5.86,0,0,0,5.85,5.86h61l5.12,5.2a3.54,3.54,0,0,0,3.87.78A3.52,3.52,0,0,0,114,91.65V53.13A5.85,5.85,0,0,0,108.15,47.28ZM24.34,70.47a2,2,0,0,0-1.43.6l-4.91,5V38.67a1.86,1.86,0,0,1,1.86-1.86H86.15A1.85,1.85,0,0,1,88,38.67v30a1.85,1.85,0,0,1-1.85,1.85H24.34ZM110,90.53l-4.92-5a1.94,1.94,0,0,0-1.42-.6H41.86A1.86,1.86,0,0,1,40,83.08V74.47H86.15A5.85,5.85,0,0,0,92,68.62V51.28h16.15A1.85,1.85,0,0,1,110,53.13Z"/><path class="cls-1" d="M82,52.06a2,2,0,0,0-2-2H28.22a2,2,0,0,0,0,4H80A2,2,0,0,0,82,52.06Z"/></svg>