<?xml version="1.0" ?><svg width="128px" height="128px" viewBox="0 0 128 128" data-name="Layer 1" id="Layer_1" xmlns="http://www.w3.org/2000/svg"><defs><style>.cls-1{fill:#231f20;}</style></defs><title/><path class="cls-1" d="M64,60.43a45,45,0,0,0-45,42.85,4,4,0,0,0,1.11,3A4,4,0,0,0,23,107.5h82a4,4,0,0,0,2.89-1.24,4,4,0,0,0,1.11-3A45,45,0,0,0,64,60.43Zm3.94,4.19-3.23,3.23a1,1,0,0,1-1.42,0l-3.23-3.23c1.3-.12,2.61-.19,3.94-.19S66.64,64.5,67.94,64.62ZM23,103.48a41,41,0,0,1,32.2-38.09l5.28,5.29a5,5,0,0,0,7.08,0l5.28-5.29A41,41,0,0,1,105,103.5Z"/><path class="cls-1" d="M64.86,59.5A19.5,19.5,0,1,0,45.36,40,19.53,19.53,0,0,0,64.86,59.5Zm0-35A15.5,15.5,0,1,1,49.36,40,15.51,15.51,0,0,1,64.86,24.5Z"/></svg>