<?xml version="1.0" ?><svg width="128px" height="128px" viewBox="0 0 128 128" data-name="Layer 1" id="Layer_1" xmlns="http://www.w3.org/2000/svg"><defs><style>.cls-1{fill:#231f20;}</style></defs><title/><path class="cls-1" d="M87.59,23.4H40.41a17,17,0,0,0-17,17V87.6a17,17,0,0,0,17,17H87.59a17,17,0,0,0,17-17V40.4A17,17,0,0,0,87.59,23.4Zm0,77.2H66.14V97.4a2,2,0,0,0-4,0v3.2H40.41a13,13,0,0,1-13-13V66H31a2,2,0,1,0,0-4H27.41V40.4a13,13,0,0,1,13-13H62.14v3a2,2,0,0,0,4,0v-3H87.59a13,13,0,0,1,13,13V62H97a2,2,0,0,0,0,4h3.61V87.6A13,13,0,0,1,87.59,100.6Z"/><path class="cls-1" d="M77.15,73.08l-11-8.92L66,37.82a2,2,0,0,0-2-2h0a2,2,0,0,0-2,2l.14,27.29a2,2,0,0,0,.74,1.54l11.75,9.52a2,2,0,0,0,1.26.45,2,2,0,0,0,1.56-.74A2,2,0,0,0,77.15,73.08Z"/></svg>