<?xml version="1.0" ?><svg width="128px" height="128px" viewBox="0 0 128 128" data-name="Layer 1" id="Layer_1" xmlns="http://www.w3.org/2000/svg"><defs><style>.cls-1{fill:#231f20;}</style></defs><title/><path class="cls-1" d="M87.6,23.41H40.35a17,17,0,0,0-17,17V87.59a17,17,0,0,0,17,17H87.6a17,17,0,0,0,17-17V40.41A17,17,0,0,0,87.6,23.41ZM27.4,87.59V40.41a13,13,0,0,1,12.45-13L67.39,45.49H53.91a8.43,8.43,0,0,0-8.42,8.42V74.09a8.42,8.42,0,0,0,7.77,8.38L80.9,100.59H40.4A13,13,0,0,1,27.4,87.59Zm46.69-38.1a4.42,4.42,0,0,1,4.42,4.42V74.09a4.42,4.42,0,0,1-4.42,4.42H53.91a4.42,4.42,0,0,1-4.42-4.42V53.91a4.42,4.42,0,0,1,4.42-4.42Zm26.51,38.1a13,13,0,0,1-12.45,13L60.61,82.51H74.09a8.43,8.43,0,0,0,8.42-8.42V53.91a8.42,8.42,0,0,0-7.77-8.38L47.1,27.41H87.6a13,13,0,0,1,13,13Z"/></svg>